<svg width="25" height="25" viewBox="0 0 25 25" fill="none" xmlns="http://www.w3.org/2000/svg">
<g id="Icon/calendar clock short term" clip-path="url(#clip0_3331_10296)">
<g id="Vector">
<path fill-rule="evenodd" clip-rule="evenodd" d="M2.75 3.29419C2.55109 3.29419 2.36032 3.37321 2.21967 3.51386C2.07902 3.65451 2 3.84528 2 4.04419V16.0442C2 16.2431 2.07902 16.4339 2.21967 16.5745C2.36032 16.7152 2.55109 16.7942 2.75 16.7942H8.75C9.16421 16.7942 9.5 17.13 9.5 17.5442C9.5 17.9584 9.16421 18.2942 8.75 18.2942H2.75C2.15326 18.2942 1.58097 18.0571 1.15901 17.6352C0.737053 17.2132 0.5 16.6409 0.5 16.0442V4.04419C0.5 3.44745 0.737053 2.87516 1.15901 2.4532C1.58097 2.03124 2.15326 1.79419 2.75 1.79419H16.25C16.8467 1.79419 17.419 2.03124 17.841 2.4532C18.2629 2.87516 18.5 3.44745 18.5 4.04419V8.54419C18.5 8.9584 18.1642 9.29419 17.75 9.29419C17.3358 9.29419 17 8.9584 17 8.54419V4.04419C17 3.84528 16.921 3.65451 16.7803 3.51386C16.6397 3.37321 16.4489 3.29419 16.25 3.29419H2.75Z" fill="currentColor"/>
<path fill-rule="evenodd" clip-rule="evenodd" d="M0.5 7.04419C0.5 6.62998 0.835786 6.29419 1.25 6.29419H17.75C18.1642 6.29419 18.5 6.62998 18.5 7.04419C18.5 7.4584 18.1642 7.79419 17.75 7.79419H1.25C0.835786 7.79419 0.5 7.4584 0.5 7.04419Z" fill="currentColor"/>
<path fill-rule="evenodd" clip-rule="evenodd" d="M5.75 0.294189C6.16421 0.294189 6.5 0.629976 6.5 1.04419V4.04419C6.5 4.4584 6.16421 4.79419 5.75 4.79419C5.33579 4.79419 5 4.4584 5 4.04419V1.04419C5 0.629976 5.33579 0.294189 5.75 0.294189Z" fill="currentColor"/>
<path fill-rule="evenodd" clip-rule="evenodd" d="M13.25 0.294189C13.6642 0.294189 14 0.629976 14 1.04419V4.04419C14 4.4584 13.6642 4.79419 13.25 4.79419C12.8358 4.79419 12.5 4.4584 12.5 4.04419V1.04419C12.5 0.629976 12.8358 0.294189 13.25 0.294189Z" fill="currentColor"/>
<path fill-rule="evenodd" clip-rule="evenodd" d="M12.977 12.7712C14.2429 11.5053 15.9598 10.7942 17.75 10.7942C19.5402 10.7942 21.2571 11.5053 22.523 12.7712C23.7888 14.0371 24.5 15.754 24.5 17.5442C24.5 19.3344 23.7888 21.0513 22.523 22.3172C21.2571 23.583 19.5402 24.2942 17.75 24.2942C15.9598 24.2942 14.2429 23.583 12.977 22.3172C11.7112 21.0513 11 19.3344 11 17.5442C11 15.754 11.7112 14.0371 12.977 12.7712ZM17.75 12.2942C16.3576 12.2942 15.0223 12.8473 14.0377 13.8319C13.0531 14.8164 12.5 16.1518 12.5 17.5442C12.5 18.9366 13.0531 20.2719 14.0377 21.2565C15.0223 22.2411 16.3576 22.7942 17.75 22.7942C19.1424 22.7942 20.4777 22.2411 21.4623 21.2565C22.4469 20.2719 23 18.9366 23 17.5442C23 16.1518 22.4469 14.8164 21.4623 13.8319C20.4777 12.8473 19.1424 12.2942 17.75 12.2942Z" fill="currentColor"/>
<path fill-rule="evenodd" clip-rule="evenodd" d="M17.75 14.1432C18.1642 14.1432 18.5 14.479 18.5 14.8932V16.7942H20.402C20.8162 16.7942 21.152 17.13 21.152 17.5442C21.152 17.9584 20.8162 18.2942 20.402 18.2942H17.75C17.3358 18.2942 17 17.9584 17 17.5442V14.8932C17 14.479 17.3358 14.1432 17.75 14.1432Z" fill="currentColor"/>
</g>
</g>
<defs>
<clipPath id="clip0_3331_10296">
<rect width="24" height="24" fill="white" transform="translate(0.5 0.294189)"/>
</clipPath>
</defs>
</svg>
