<?xml version="1.0" encoding="UTF-8"?>
<svg id="Layer_1" xmlns="http://www.w3.org/2000/svg" version="1.1" viewBox="0 0 24 24" fill="currentColor">
  <!-- Generator: Adobe Illustrator 29.4.0, SVG Export Plug-In . SVG Version: 2.1.0 Build 152)  -->
  <defs>
    <style>
      .st0 {
        fill: none;
      }

      .st1 {
        fill-rule: evenodd;
      }
    </style>
  </defs>
  <path d="M21.5,5.2H2c-.4,0-.8.3-.8.8s.3.8.8.8h19.5c.4,0,.8-.3.8-.8s-.3-.8-.8-.8Z"/>
  <path class="st1" d="M9.5,9.7c.4,0,.8.3.8.8v6c0,.4-.3.8-.8.8s-.8-.3-.8-.8v-6c0-.4.3-.8.8-.8Z"/>
  <path class="st1" d="M14,9.7c.4,0,.8.3.8.8v6c0,.4-.3.8-.8.8s-.8-.3-.8-.8v-6c0-.4.3-.8.8-.8Z"/>
  <path class="st0" d="M14.5,4c-.1-.1-.3-.2-.5-.2h-4.5c-.2,0-.4,0-.5.2s-.2.3-.2.5v.8h6v-.8c0-.2,0-.4-.2-.5Z"/>
  <path class="st0" d="M5.8,6.7v12.8c0,.2,0,.4.2.5.1.1.3.2.5.2h10.5c.2,0,.4,0,.5-.2.1-.1.2-.3.2-.5V6.7H5.8Z"/>
  <path class="st0" d="M5.8,6.7v12.8c0,.2,0,.4.2.5.1.1.3.2.5.2h10.5c.2,0,.4,0,.5-.2.1-.1.2-.3.2-.5V6.7H5.8Z"/>
  <path d="M17.8,19.5c0,.2,0,.4-.2.5-.1.1-.3.2-.5.2H6.5c-.2,0-.4,0-.5-.2-.1-.1-.2-.3-.2-.5V6.7h-1.5v12.8c0,.6.2,1.2.7,1.6.4.4,1,.7,1.6.7h10.5c.6,0,1.2-.2,1.6-.7.4-.4.7-1,.7-1.6V6.7h-1.5v12.8Z"/>
  <path d="M8.8,4.5c0-.2,0-.4.2-.5s.3-.2.5-.2h4.5c.2,0,.4,0,.5.2.1.1.2.3.2.5v.8h1.5v-.8c0-.6-.2-1.2-.7-1.6-.4-.4-1-.7-1.6-.7h-4.5c-.6,0-1.2.2-1.6.7-.4.4-.7,1-.7,1.6v.8h1.5v-.8Z"/>
</svg>
