<svg height="24" viewBox="0 0 24 24" width="24" xmlns="http://www.w3.org/2000/svg" fill="currentColor">
    <path
        clip-rule="evenodd"
        d="M15.8401 0.0157436C15.3369 0.0637916 15.197 0.0806396 14.9669 0.120888C11.7578 0.681912 9.22819 3.25104 8.71519 6.47023C8.51316 7.73801 8.62003 8.98488 9.03535 10.2058L9.14364 10.524L4.80288 14.868C0.827065 18.8469 0.451825 19.229 0.339601 19.4142C0.122425 19.7726 0.0263048 20.0867 0.0067688 20.502C-0.0197752 21.0659 0.138625 21.5828 0.467785 22.0064C0.633601 22.2197 1.96586 23.526 2.11946 23.6259C2.31643 23.7539 2.57388 23.8683 2.80968 23.9327C2.98063 23.9794 3.06984 23.9879 3.38407 23.9877C3.78614 23.9874 3.93646 23.9604 4.25345 23.8314C4.67796 23.6587 4.4473 23.8779 9.1326 19.1964L13.4771 14.8553L13.6326 14.9168C14.0944 15.0995 14.8687 15.2803 15.473 15.3466C15.8638 15.3895 16.65 15.396 17.0195 15.3594C20.4087 15.024 23.1557 12.5644 23.8405 9.25205C23.9564 8.69153 23.9866 8.36467 23.986 7.68005C23.9852 6.84679 23.9143 6.30785 23.7107 5.58766C23.5792 5.12249 23.2963 4.41365 23.147 4.17504C22.9481 3.85733 22.5371 3.74165 22.181 3.90314C22.1233 3.92933 21.4352 4.59814 20.2201 5.80927C18.943 7.08209 18.3138 7.69301 18.2401 7.7315C18.1488 7.77919 18.0968 7.7879 17.9041 7.7879C17.7111 7.7879 17.6595 7.77922 17.5681 7.73134C17.4206 7.65406 16.5113 6.74328 16.4386 6.60005C16.3994 6.52279 16.3807 6.43639 16.373 6.2965C16.3533 5.93599 16.2333 6.0775 18.3842 3.92405C20.4889 1.81687 20.3832 1.93915 20.3853 1.60805C20.3863 1.46364 20.3743 1.40196 20.325 1.29605C20.2303 1.09265 20.1096 0.991224 19.7489 0.81168C18.8678 0.3732 17.9258 0.11016 16.9321 0.0251756C16.6659 0.00242361 16.0366 -0.00302439 15.8401 0.0157436ZM15.7681 1.5276C15.5505 1.54829 15.0584 1.63466 14.8224 1.69356C13.3821 2.0531 12.1314 2.90592 11.2594 4.12308C10.8921 4.63582 10.5397 5.37497 10.3588 6.01205C10.1834 6.62986 10.1167 7.18157 10.1348 7.86679C10.1576 8.73278 10.2901 9.32412 10.6655 10.2343C10.7983 10.5563 10.8196 10.6967 10.7643 10.887C10.7419 10.964 10.7014 11.0596 10.6744 11.0995C10.6473 11.1394 8.59791 13.2024 6.12014 15.684C3.02172 18.7873 1.60094 20.226 1.56962 20.292C1.4983 20.4424 1.50499 20.8045 1.58201 20.964C1.66517 21.1362 2.86519 22.3366 3.03607 22.4185C3.19591 22.4952 3.55831 22.5016 3.70807 22.4304C3.77405 22.3991 5.2151 20.9759 8.31607 17.8794C11.1858 15.0138 12.8674 13.3516 12.9361 13.3127C13.0725 13.2355 13.2598 13.2015 13.4142 13.2259C13.4801 13.2363 13.6506 13.2936 13.7931 13.3533C14.5687 13.6782 15.1593 13.8201 15.9537 13.8725C17.0041 13.9418 18.0478 13.7268 19.0474 13.2353C20.2562 12.6408 21.2474 11.6527 21.8394 10.452C22.0997 9.92412 22.2681 9.42931 22.3785 8.86805C22.5519 7.98619 22.5208 6.99482 22.2924 6.12482L22.2402 5.9256L20.8101 7.35101C19.9787 8.17975 19.3138 8.823 19.2217 8.8877C19.011 9.0359 18.7682 9.15355 18.5112 9.23218C18.3185 9.29112 18.2656 9.29674 17.9041 9.29674C17.5425 9.29674 17.4897 9.29112 17.297 9.23218C16.7964 9.0791 16.5775 8.92534 15.9102 8.25797C15.2426 7.59041 15.0885 7.37102 14.9361 6.87115C14.8783 6.68131 14.8716 6.62136 14.8702 6.27605C14.8684 5.86207 14.8974 5.70602 15.0391 5.36846C15.1978 4.99013 15.278 4.89958 16.8433 3.33065C17.6562 2.51587 18.3165 1.84553 18.3107 1.84099C18.2923 1.82666 17.8749 1.70616 17.7121 1.66817C17.2633 1.56341 16.9812 1.53187 16.4281 1.5246C16.1245 1.52059 15.8275 1.52196 15.7681 1.5276Z"
        fill-rule="evenodd"/>
</svg>
